<?xml version="1.0" encoding="UTF-8"?>
<!DOCTYPE svg PUBLIC "-//W3C//DTD SVG 1.1//EN" "http://www.w3.org/Graphics/SVG/1.1/DTD/svg11.dtd">
<!-- Creator: CorelDRAW 2018 (64 Bit Versão de avaliação) -->
<?xml-stylesheet href="logoSv.css" type="text/css"?>
<svg xmlns="http://www.w3.org/2000/svg" xml:space="preserve" width="8.26772in" height="11.6929in" version="1.1" style="shape-rendering:geometricPrecision; text-rendering:geometricPrecision; image-rendering:optimizeQuality; fill-rule:evenodd; clip-rule:evenodd"
viewBox="0 0 8267.72 11692.91"
 xmlns:xlink="http://www.w3.org/1999/xlink">
 <g id="Camada_x0020_1">
  <metadata id="CorelCorpID_0Corel-Layer"/>
  <g id="_2420468834800">
   <path class="fil0" d="M-7804.27 -3460.14c380.87,16.56 796.21,1.6 1180.86,1.6 735.75,0 1638.15,16.69 2351.51,-1.26 236.28,-5.94 775.39,-69.09 953.87,-220.17l-594.01 -863.24c-117.48,96.59 -112.07,117.06 -286.3,131.66 -169.7,14.22 -1020.8,3.21 -1230.24,3.21 -539.46,0 -1122.59,-21.15 -1652.26,5.46l-723.43 942.74z"/>
   <path class="fil1" d="M-5983.23 -7538.44l964.09 1372.63c581.91,12.63 967.67,18.74 1511.37,219.31l-1078.68 -1538.79 -1396.78 -53.16z"/>
   <path class="fil1" d="M-1055.48 -5034.51c2.11,5.64 3.22,9.23 3.22,9.23 13.64,49.17 245.59,819.61 245.59,819.61 126.49,226.67 320.17,-192.54 340.4,-298.64 0,0 51.34,-609.85 51.34,-609.85 8.27,-136.31 -6.51,-48.8 104.88,-187.57 0,0 238.51,-264 238.51,-264 72.28,-35.75 64.77,-76.23 61.85,-89.15 -0.56,-16.46 -127.01,-227.97 -234.53,-231.43 -59.63,-1.92 -61.27,31.44 -74.8,54.69 -19.46,33.45 -58.48,64.2 -58.48,64.2 0,0 -0.69,-93.56 2.87,-132.44 5.72,-62.37 4.68,-86.38 5.93,-99.49 408.97,-575.72 746.93,-1055.21 775.61,-1111.27 119.83,-168.46 238.76,-337.34 354.48,-507.62 51.75,-76.15 97.87,-135.26 78.4,-243.47 -16.4,-91.07 -129.33,-163.68 -223.4,-174.8 -311.1,-16.33 -524.07,106.2 -784.11,278.46 -155.14,102.76 -128.86,91.5 -214.65,217.11 0,0 -696.24,928.58 -696.24,928.58 -75.12,89.92 -11.3,44.49 -144.07,89.07 -32.61,10.95 -112.96,29.35 -112.96,29.35 0,0 18.44,-39.7 43.17,-63.18 17.19,-16.32 45.46,-24.49 31.7,-75.23 -24.8,-91.49 -231.81,-156.96 -246.04,-154.1 -11.67,0.13 -47.89,1.92 -63.87,71.13 0,0 -177.93,258.09 -177.93,258.09 -96.36,123.68 -24.33,93.24 -139.52,128.01 0,0 -512.44,167.83 -512.44,167.83 -86.87,38.87 -406.96,290.04 -186.94,352.47 0,0 707.65,42.47 752.57,44.17 0,0 41.96,2.93 64.83,17.69 16.99,10.97 37.77,24.51 61.31,39.87 -455.67,806.23 -872.31,1407.33 -1385.27,617.56 -142.05,-218.7 -272.59,-357.61 -497.23,-441.61 -323.81,-139.83 -735.87,-119.33 -1124.78,-116.69 311.55,453.17 627.36,908.04 944.83,1357.33 327.42,463.38 589.64,1058.18 1278.57,908.6 257.84,-55.98 473.85,-280.62 614.59,-490.12 84.47,-125.72 427.21,-607.32 822.62,-1162.4z"/>
   <path class="fil0" d="M-5893.02 -7114.59c-621.26,0.85 -1336.87,-25.55 -1749.18,478.08 -185.69,226.81 -242.77,587.71 -191.62,879.24 116.76,665.5 761.7,848.71 1355.28,850.16 207.6,0.5 1692.97,-15.99 2108.44,7.68l-513.01 -746.19c-119.46,1.99 -233.39,4.29 -337,4.29 -296.59,0 -593.17,0 -889.76,0 -218.6,0 -630.66,58.56 -637.33,-250.85 -6.91,-320.22 401.61,-261.29 624.63,-261.29 294.31,0 588.42,-0.26 887.84,-3.61l-658.28 -957.5z"/>
  </g>
 </g>
</svg>
