<?xml version="1.0" encoding="UTF-8"?>
<!DOCTYPE svg PUBLIC "-//W3C//DTD SVG 1.1//EN" "http://www.w3.org/Graphics/SVG/1.1/DTD/svg11.dtd">
<!-- Creator: CorelDRAW 2018 (64 Bit Versão de avaliação) -->
<svg xmlns="http://www.w3.org/2000/svg" xml:space="preserve" width="8.26772in" height="11.6929in" version="1.1" style="shape-rendering:geometricPrecision; text-rendering:geometricPrecision; image-rendering:optimizeQuality; fill-rule:evenodd; clip-rule:evenodd"
viewBox="0 0 8267.72 11692.91"
 xmlns:xlink="http://www.w3.org/1999/xlink">
 <defs>
  <style type="text/css">
   <![CDATA[
    .fil0 {fill:black}
   ]]>
  </style>
 </defs>
 <g id="Camada_x0020_1">
  <metadata id="CorelCorpID_0Corel-Layer"/>
  <g id="_2323805814336">
   <path class="fil0" d="M6059.85 -4833.54c11.95,-17.85 21.31,-38.06 35.77,-54.23 25.33,-28.33 40.89,-22.25 40.89,-65.77 0,-33.26 -26.8,-61.64 -48.67,-78 -50.76,-37.99 -144.89,-92 -208,-92 -26.47,0 -39.56,24.89 -48.94,44.4 -5.23,10.87 -4.48,13.96 -8.37,24.96 -5.35,15.12 -113.59,165.29 -128.69,187.98l-80.07 113.27c-23.33,35.66 -21.12,58.16 -59.35,70.65l-480 156.66c-56.23,18.75 -86.31,25.46 -135.25,58.08 -38.29,25.52 -74.46,54.13 -106.83,86.5 -61.22,61.22 -178.11,186.11 -33.1,234.76l130.52 9.48c44.74,-0.02 87.78,4.72 133.54,6.46 14.75,0.56 13.36,3.37 29.75,3.59 44.03,0.59 89.49,6.48 133.54,6.46 17.69,-0 18.39,2.98 33.13,3.54 10.62,0.41 23.06,-0.94 33.5,-0.16 12.89,0.96 15.54,3.52 33.27,3.4l96.93 6.41c11,1.29 25.22,-0.33 36.57,0.1 14.75,0.56 13.37,3.36 29.75,3.59 49.76,0.68 104.17,0.2 147.46,29.21 11.84,7.93 32.77,24.25 46,27.33 -5.65,24.26 -123.96,218.02 -148.91,261.09 -8.02,13.85 -14.95,23.53 -23.1,36.9 -7.96,13.05 -13.49,23.74 -21.33,35.34l-242.71 350.63c-8.43,10.67 -19.51,21.41 -27.92,32.08 -34.33,43.57 -76.03,81.84 -115.2,121.46l-30.21 26.45c-4.85,3.83 -3.03,1.61 -7.9,5.44l-98.24 68.42c-26.33,14.54 -52.35,25.61 -81.53,35.14 -124.43,40.65 -248.36,-1.77 -338.71,-70.54 -38.39,-29.22 -75.79,-59.77 -106.72,-96.61l-56.19 -67.14c-12.4,-16.38 -22.01,-29.92 -34.1,-45.9l-24.54 -35.46c-4.29,-6.43 -6.11,-7.98 -9.98,-13.35l-98.81 -144.52c-40.97,-54.42 -85.63,-105.16 -134.65,-152.02 -34.76,-33.22 -75.34,-61.38 -115.24,-88.09 -9.02,-6.04 -15.45,-9.56 -24.67,-15.33l-53.78 -29.56c-10.69,-5.38 -17.2,-7.09 -27.81,-12.18l-178.37 -68.3c-22.19,-5.92 -40.81,-11.88 -62.68,-17.32 -295.06,-73.46 -634.31,-56.65 -940.02,-56.65 1.31,15.72 34.28,56.32 44.67,72 8.83,13.34 15.89,22.14 24.67,35.33 8.69,13.04 15.28,23.13 24.58,35.42 8.41,11.12 14.99,22.96 22.7,33.96l24.71 35.29c4.69,7.04 7.74,12.03 11.95,18.05 44.77,63.86 86.84,130.4 133.96,192.7l364.71 525.29c5.72,8.41 7.04,8.83 12.75,17.25l111.96 158.04c-13.27,19.81 -52.1,48.3 -72.75,63.91 -11.34,8.57 -30.55,18.99 -45.19,24.81 -19.31,7.67 -33.61,10.5 -55.13,14.87 -19.38,3.93 -40.12,4.54 -61.59,8.41l-65.33 4.67c-47.33,-0.24 -86.88,3.32 -136.68,3.32 -246.67,0 -493.33,0 -740,0 -74.11,0 -137.92,-3.33 -210,-3.33 -421.91,0 -840.84,-6.67 -1263.33,-6.67 -87.38,0 -164.54,3.33 -250,3.33 -46.44,0 -103.13,0.91 -150.23,6.44l-96.44 3.56c-3.32,12.43 -35.04,48.8 -43.31,60.02l-382.44 497.56c-8.68,11.41 -14.18,19.05 -23.34,30l-135.61 177.72c-24.17,32.62 -121.55,152.06 -135.3,178.04l143.3 6.7c50,-0.24 100.03,0.06 150.04,-0.04 27.59,-0.05 41.75,3.36 70,3.33l883.33 -6.67c522.73,0 1034.43,6.67 1556.67,6.67l583.33 -6.67c33.32,0.01 89.13,3.37 119.78,-0.22l166.94 -9.73c41.79,0.18 114.61,-13.11 159.95,-16.71l104.66 -15.34c130.2,-22.13 259.42,-46.2 381.6,-91.74 46.59,-17.36 98.95,-37.9 139.08,-67.58 9.2,-6.8 7.67,-6.54 17.99,-12.01 9.88,14.76 13.12,18.12 25.84,30.83l112.83 103.84 79.33 57.33c29.88,20.06 61.74,36.52 94.17,52.5 151.36,74.58 339.34,81.27 501.44,49.1 118.16,-23.45 220.86,-76.59 316.4,-146.93 10.28,-7.57 20.02,-16.02 30,-23.33l57.55 -49.12c18.13,-17.96 33.59,-33.69 51.62,-51.71l36.87 -39.8c4.31,-5.52 8.27,-8.33 13.2,-13.46 6.35,-6.61 5.26,-6.98 10.13,-13.2l36.48 -43.52c48.31,-55.99 88.04,-119.65 129.44,-180.56l430.72 -609.28c7.05,-10.63 13.61,-19.37 20.61,-29.39l32 -44.66c5.2,-7.7 6.87,-8.72 11.42,-15.24l108 -152.01c45.07,-66.78 94.94,-129.92 140,-196.67 10.31,-15.28 20.38,-34.72 35.29,-44.71 15.92,68.31 48.21,165.5 68.74,234.6 23.53,79.2 46.31,153.59 70,233.33l105.85 350.81c16.49,41.59 47.56,71.26 95.41,71.26 79.48,0 163.52,-157.03 193.33,-216.67 21.67,-43.35 48.25,-100.3 56.05,-150.62 3.3,-21.3 1.69,-44.13 4.18,-65.82 1.31,-11.39 2.87,-13.76 3.01,-30.32 0.29,-32.6 11.7,-111.17 13.31,-160.02l16.74 -193.26c0.24,-16.56 3.01,-15.13 3.5,-29.84l9.96 -126.71c-0.07,-22.37 1.82,-79.11 12.24,-91.09 15.74,-18.1 35.98,-31.15 50.39,-49.61 5.25,-6.73 11.83,-12.09 18.18,-18.49l81.59 -91.74c6.76,-8.05 6.74,-10.14 15,-18.34 35.12,-34.85 147.46,-168.25 165.16,-181.51 5.77,-4.32 14.43,-8.43 20.71,-12.62 67.97,-45.37 42.93,-87.27 3.32,-146.68l-37.99 -52.01c-36.21,-48.46 -100.81,-111.33 -172.01,-111.33 -15.02,0 -33.09,7.75 -41,15.67 -7.88,7.9 -14.91,27.33 -21.19,38.81 -10.7,19.57 -40.5,50.59 -57.82,62.19 0,-20 0.07,-40.01 -0,-60 -0.09,-24.23 3.54,-33.42 3.35,-56.66 -0.33,-37.98 6.66,-74.52 6.66,-113.34 3.91,-5.84 6,-7.49 10.05,-13.29 3.01,-4.32 5.95,-9.44 9.37,-13.96l48.62 -68.05c4,-5.93 5.39,-8.45 9.53,-13.8 7.47,-9.67 12.41,-17.38 19.68,-26.99l236.13 -333.87c3.01,-4.32 5.95,-9.43 9.37,-13.96l224.5 -318.84c7.07,-9.34 11.77,-18.48 18.84,-27.83l77.91 -112.09c6.98,-10.48 12.8,-17.89 19.38,-27.29 6.44,-9.19 11.73,-17.71 18.62,-28.05 47.1,-70.64 92.78,-142.11 142.66,-210.67l147.34 -209.32c7.37,-11.16 12.13,-16.64 19.37,-27.29l77.29 -112.71c50.55,-75.83 124.67,-157.06 124.67,-255.33 0,-107.2 -79.36,-179.46 -167.9,-208.77 -37.06,-12.27 -69.32,-17.9 -108.77,-17.9 -52.3,0 -100.4,3.12 -148.68,11.33 -100.24,17.04 -196.06,45.97 -285.78,90.89 -71.44,35.76 -140.56,72.23 -206.9,116.43 -22.56,15.03 -42.46,27.23 -64.65,42.02 -54.56,36.37 -145.36,86.64 -182.05,141.28 -143.17,213.21 -303.79,413.8 -456.65,620.02l-184.39 245.61c-31.95,41.89 -61.37,81.3 -92.87,123.79 -8.56,11.56 -14.03,19.19 -22.7,30.64l-46.62 60.04c-10.24,11.57 -138.76,44.63 -165.39,51.28 -13.31,3.33 -31.92,9.67 -46.67,10z"/>
   <path class="fil0" d="M1859.84 -3246.87l743.33 0c137.81,0 282.47,10 420,10 -20.34,-38.44 -126.76,-184.82 -158,-232l-32.67 -47.33c-10.93,-16.4 -20.13,-28.53 -31.33,-45.33 -11.72,-17.58 -21.09,-29.93 -32.67,-47.33l-175.38 -254.62c-11.57,-16.5 -76.35,-106.54 -79.95,-120.05 -89.43,0 -171.63,3.33 -263.33,3.33l-936.67 0c-126.97,0 -262.51,15.78 -384.06,-2.6 -11.67,-1.76 -20.28,-2.2 -29.63,-3.71 -95.23,-15.41 -183.28,-48.39 -228.53,-138.14 -8.3,-16.46 -13.24,-31.38 -17.03,-49.63 -7.61,-36.68 -9.61,-76.43 -2.2,-114.04 3.64,-18.44 6.45,-31.5 12.73,-47.27 76.18,-191.33 381.91,-154.61 542.06,-154.61l730 0c78.3,0 145.18,-3.33 223.33,-3.33l-164 -239.33c-14.07,-21.11 -26.38,-37.91 -40.67,-59.33l-103.33 -150c-7.58,-11.4 -13.59,-21.56 -21.42,-31.91 -14.94,-19.76 -26.22,-39.09 -41.16,-58.84 -7.35,-9.71 -13.18,-19.54 -20.09,-29.91 -3.56,-5.33 -5.98,-9.34 -9.29,-14.05l-31.38 -45.29c-53.78,-81.24 -112.26,-159.48 -166.01,-240.65 -7.18,-10.84 -12.77,-19.24 -19.97,-30.03l-42.69 -60.65 -283.41 -0.08c-19.14,0.01 -25.13,3.53 -46.58,3.43 -33.33,-0.17 -66.69,0.01 -100.01,-0.01 -34.1,-0.03 -59.76,3.47 -96.7,3.3l-136.86 9.81c-7.31,0.85 -15.85,-0.15 -23.24,0.1l-202.4 24.27c-109.67,18.57 -216.87,42.09 -320.4,76.27l-207.13 89.54 -91.29 55.38c-34.28,22.86 -69.09,46.04 -99.55,73.78l-113.33 110c-6.04,6.69 -4.57,6.97 -9.97,13.37 -26.96,31.94 -54.4,64.61 -75.72,100.94 -6.24,10.63 -11.19,20.64 -18.08,31.92 -11.26,18.43 -25.75,45.41 -34.01,65.98 -42.03,104.61 -72.78,194.76 -87.65,309.02 -22.81,175.31 -16.02,365.8 39.23,530.08 4.48,13.31 7.7,23.57 12.46,37.54 29.49,86.59 78.48,166.59 131.27,238.73 5.16,7.05 6.98,7.69 12.5,14.17l150.3 146.36c10.16,7.65 17.98,13.76 28.55,21.45 20,14.55 39.19,26.28 60.66,39.34 21.64,13.17 40.52,24.98 63.56,36.44 56.91,28.32 114.52,55.03 174.88,75.12 101.94,33.94 256.44,75.3 362.91,83.76 59.7,4.74 120.34,17 179.97,16.7 34.77,-0.17 59.81,3.3 96.7,3.3 132.22,0 264.44,0 396.67,0 66.61,0 127.24,-3.33 196.67,-3.33 133.33,0 266.67,0 400,0z"/>
   <path class="fil0" d="M2376.51 -4500.2c35.55,0 71.12,0.12 106.67,-0 22.36,-0.08 30.66,3.41 49.92,3.41 88.23,0.04 174.85,6.48 263.49,6.51l99.8 6.87c131.35,1.7 370.93,34.83 482.67,57.33 59.55,12 118.05,25.28 176.8,39.87 95.87,23.8 194.75,54.28 287.74,88.93 9.79,3.65 33.79,12.98 42.92,13.74l-167.34 -239.32c-6.15,-9.3 -10.04,-14.8 -16.57,-23.43 -29.59,-39.12 -55.22,-82.72 -85.18,-121.48 -6.55,-8.48 -9.99,-14.68 -16.19,-23.81 -6.41,-9.44 -10.2,-13.43 -16.72,-23.29l-101.28 -145.38c-5.62,-8.02 -11.08,-14.76 -16.72,-23.29l-269.35 -383.98c-6,-8.99 -9.75,-14.98 -16.41,-23.59 -6.55,-8.47 -10.04,-14.76 -16.67,-23.33 -41.94,-54.26 -76.73,-113.74 -118.15,-168.52 -23.33,-30.85 -43.22,-65.59 -66.99,-96.34 -6.66,-8.61 -10.41,-14.6 -16.41,-23.59l-34.69 -48.64c-6.5,-9.83 -10,-14.18 -16.67,-23.33 -6.56,-9 -9.43,-15.02 -15.98,-24.02l-68.63 -98.04c-6.35,-9.06 -13.45,-14.41 -16.71,-26.62l-173.33 -6.67c-14,0.05 -29.68,0.66 -43.47,0.13 -15.31,-0.59 -22.93,-3.54 -43.2,-3.46 -15.08,0.05 -31.93,0.7 -46.8,0.13 -15.31,-0.59 -22.93,-3.54 -43.2,-3.46l-566.8 -19.87c-16.98,-0.24 -22.68,-3.57 -43.2,-3.47l-176.67 -6.66c-14,0.05 -29.68,0.66 -43.47,0.13l-129.86 -6.81c-15.06,0.07 -31.96,0.71 -46.81,0.14 -15.24,-0.58 -23.03,-3.46 -43.2,-3.46 15.59,29.46 38.34,58.39 57.99,85.34 11.11,15.23 19.59,27.4 30.68,42.65l211.91 301.43c68.68,90.81 127.95,189.13 196.67,280l105.5 151.16c6.09,8.06 9.24,12.33 15.24,21.42 5.93,8.98 10.09,13.74 15.39,21.28l75.24 108.09c6.1,8.97 9.41,12.25 15.39,21.28l242.66 344.01z"/>
  </g>
 </g>
</svg>
