<?xml version="1.0" encoding="UTF-8"?>
<!DOCTYPE svg PUBLIC "-//W3C//DTD SVG 1.1//EN" "http://www.w3.org/Graphics/SVG/1.1/DTD/svg11.dtd">
<!-- Creator: CorelDRAW 2018 (64 Bit Versão de avaliação) -->
<?xml-stylesheet href="logoSvTransparent.css" type="text/css"?>
<svg xmlns="http://www.w3.org/2000/svg" xml:space="preserve" width="8.26772in" height="11.6929in" version="1.1" style="shape-rendering:geometricPrecision; text-rendering:geometricPrecision; image-rendering:optimizeQuality; fill-rule:evenodd; clip-rule:evenodd"
viewBox="0 0 8267.72 11692.91"
 xmlns:xlink="http://www.w3.org/1999/xlink">
 <g id="Camada_x0020_1">
  <metadata id="CorelCorpID_0Corel-Layer"/>
  <path class="fil0 str0" d="M14559.87 -2163.67c380.87,16.56 796.21,1.6 1180.86,1.6 735.75,0 1638.16,16.69 2351.51,-1.26 231.5,-5.83 753.66,-66.57 942.56,-211.14 203.54,225.73 454.41,371.94 836.65,288.95 257.84,-55.98 473.84,-280.62 614.59,-490.12 84.47,-125.72 427.21,-607.31 822.62,-1162.4 2.1,5.64 3.22,9.23 3.22,9.23 13.64,49.17 245.59,819.61 245.59,819.61 126.49,226.67 320.17,-192.54 340.4,-298.64 0,0 51.34,-609.85 51.34,-609.85 8.27,-136.31 -6.51,-48.8 104.88,-187.57 0,0 238.51,-264 238.51,-264 72.27,-35.75 64.76,-76.23 61.85,-89.15 -0.56,-16.46 -127.01,-227.97 -234.54,-231.43 -59.63,-1.92 -61.27,31.44 -74.79,54.69 -19.46,33.45 -58.49,64.2 -58.49,64.2 0,0 -0.69,-93.56 2.88,-132.44 5.72,-62.37 4.68,-86.38 5.92,-99.49 408.98,-575.72 746.93,-1055.21 775.61,-1111.27 119.82,-168.46 238.76,-337.34 354.48,-507.62 51.74,-76.15 97.87,-135.26 78.39,-243.47 -16.4,-91.07 -129.33,-163.68 -223.4,-174.8 -311.1,-16.33 -524.07,106.2 -784.11,278.46 -155.14,102.76 -128.86,91.51 -214.65,217.11 0,0 -696.24,928.58 -696.24,928.58 -75.12,89.92 -11.3,44.5 -144.07,89.07 -32.6,10.95 -112.96,29.35 -112.96,29.35 0,0 18.44,-39.7 43.17,-63.18 17.19,-16.31 45.46,-24.49 31.7,-75.22 -24.8,-91.5 -231.81,-156.96 -246.04,-154.11 -11.67,0.13 -47.9,1.92 -63.87,71.13 0,0 -177.94,258.09 -177.94,258.09 -96.35,123.67 -24.33,93.23 -139.52,128 0,0 -512.44,167.83 -512.44,167.83 -86.87,38.87 -406.96,290.04 -186.94,352.46 0,0 707.65,42.47 752.57,44.17 0,0 41.96,2.93 64.83,17.69 16.99,10.97 37.77,24.51 61.31,39.87 -455.67,806.23 -872.31,1407.33 -1385.28,617.56 -142.05,-218.7 -272.59,-357.61 -497.23,-441.61 -323.81,-139.83 -735.87,-119.33 -1124.78,-116.69 257.79,374.96 518.5,751.1 780.65,1124.28 -94.2,79.91 -101.12,98.54 -262.89,112.09 -169.7,14.22 -1020.8,3.21 -1230.25,3.21 -539.46,0 -1122.59,-21.15 -1652.26,5.46l-723.43 942.74zm1911.26 -3654.45c-621.26,0.85 -1336.87,-25.55 -1749.19,478.08 -185.69,226.82 -242.77,587.71 -191.62,879.24 116.77,665.51 761.7,848.71 1355.28,850.16 207.6,0.5 1692.97,-15.99 2108.44,7.68l-513 -746.19c-119.46,1.99 -233.4,4.29 -337,4.29 -296.59,0 -593.18,0 -889.76,0 -218.61,0 -630.66,58.56 -637.34,-250.85 -6.91,-320.23 401.61,-261.3 624.63,-261.3 294.31,0 588.42,-0.26 887.84,-3.61l-658.28 -957.5zm-90.21 -423.85l964.08 1372.63c581.91,12.63 967.67,18.74 1511.37,219.31l-1078.67 -1538.78 -1396.78 -53.16z"/>
 </g>
</svg>
